<svg width="213" height="246" viewBox="0 0 213 246" fill="none" xmlns="http://www.w3.org/2000/svg">
<rect x="18.2422" y="28.7153" width="194.745" height="193.16" rx="33.3848" fill="#1457D9"/>
<path d="M64.7778 176L100.939 69.8129H130.356L166.517 176H143.27L136.526 155.193H94.912L88.0242 176H64.7778ZM101.082 135.965H130.356L115.719 91.6243L101.082 135.965Z" fill="white"/>
<path d="M18.2266 60.9999H34.4839C35.5884 60.9999 36.4839 61.8953 36.4839 62.9999V88.9998C36.4839 90.1044 35.5884 90.9998 34.4839 90.9998H18.2266V60.9999Z" fill="white"/>
<path d="M0 63C0 61.8954 0.895431 61 2 61H18.2573V90.9999H2C0.89543 90.9999 0 90.1045 0 88.9999V63Z" fill="#1457D9"/>
<path d="M18.2266 108H34.4839C35.5884 108 36.4839 108.895 36.4839 110V136C36.4839 137.104 35.5884 138 34.4839 138H18.2266V108Z" fill="white"/>
<path d="M0 110C0 108.895 0.895431 108 2 108H18.2573V138H2C0.89543 138 0 137.104 0 136V110Z" fill="#1457D9"/>
<path d="M18.2266 155H34.4839C35.5884 155 36.4839 155.895 36.4839 157V183C36.4839 184.104 35.5884 185 34.4839 185H18.2266V155Z" fill="white"/>
<path d="M0 157C0 155.895 0.895431 155 2 155H18.2573V185H2C0.89543 185 0 184.104 0 183V157Z" fill="#1457D9"/>
</svg>
