<svg width="186" height="228" viewBox="0 0 186 228" fill="none" xmlns="http://www.w3.org/2000/svg">
<rect x="13.3477" y="5.5636" width="172.514" height="221.804" rx="29.5738" fill="#1457D9"/>
<path d="M56.7432 156.632L88.7763 62.5663H114.835L146.868 156.632H126.275L120.301 138.2H83.4374L77.3359 156.632H56.7432ZM88.9034 121.167H114.835L101.869 81.8878L88.9034 121.167Z" fill="white"/>
<path d="M13.3359 44.7943H25.2313C26.0395 44.7943 26.6947 45.4495 26.6947 46.2577V65.2817C26.6947 66.0899 26.0395 66.7451 25.2313 66.7451H13.3359V44.7943Z" fill="white"/>
<path d="M0 46.2576C0 45.4494 0.655182 44.7942 1.46339 44.7942H13.3588V66.745H1.46339C0.65518 66.745 0 66.0898 0 65.2816V46.2576Z" fill="#1457D9"/>
<path d="M13.3359 84.3057H25.2313C26.0395 84.3057 26.6947 84.9608 26.6947 85.7691V104.793C26.6947 105.601 26.0395 106.256 25.2313 106.256H13.3359V84.3057Z" fill="white"/>
<path d="M0 85.7689C0 84.9607 0.655182 84.3055 1.46339 84.3055H13.3588V106.256H1.46339C0.65518 106.256 0 105.601 0 104.793V85.7689Z" fill="#1457D9"/>
<path d="M13.3359 123.817H25.2313C26.0395 123.817 26.6947 124.473 26.6947 125.281V144.305C26.6947 145.113 26.0395 145.768 25.2313 145.768H13.3359V123.817Z" fill="white"/>
<path d="M0 125.281C0 124.472 0.655182 123.817 1.46339 123.817H13.3588V145.768H1.46339C0.65518 145.768 0 145.113 0 144.305V125.281Z" fill="#1457D9"/>
<path d="M13.3359 163.329H25.2313C26.0395 163.329 26.6947 163.984 26.6947 164.792V183.816C26.6947 184.624 26.0395 185.28 25.2313 185.28H13.3359V163.329Z" fill="white"/>
<path d="M0 164.792C0 163.984 0.655182 163.329 1.46339 163.329H13.3588V185.28H1.46339C0.65518 185.28 0 184.624 0 183.816V164.792Z" fill="#1457D9"/>
</svg>
