<svg width="21" height="20" viewBox="0 0 21 20" fill="none" xmlns="http://www.w3.org/2000/svg">
<path d="M15.0094 11.4962V11.508C15.0099 11.5684 14.9914 11.6275 14.9568 11.6771C14.9224 11.7266 14.8734 11.7643 14.8164 11.7848L14.811 11.7868L10.8106 13.2606L10.4106 13.408L10.2633 13.808L8.78946 17.8083C8.76807 17.8665 8.72931 17.9167 8.67827 17.9523C8.62737 17.9878 8.56684 18.0068 8.50472 18.0068C8.44261 18.0068 8.38206 17.9878 8.33117 17.9523C8.28025 17.9168 8.24143 17.8665 8.21993 17.8082L6.74619 13.808L6.59881 13.408L6.19879 13.2606L2.19862 11.7868C2.14031 11.7653 2.09 11.7265 2.05452 11.6756C2.01903 11.6248 2 11.5642 2 11.5021C2 11.44 2.01903 11.3794 2.05452 11.3285C2.09 11.2776 2.14019 11.2389 2.1985 11.2173L6.19879 9.74355L6.59881 9.59617L6.74619 9.19617L8.21993 5.19598C8.24144 5.13763 8.28025 5.08739 8.33117 5.05189C8.38206 5.01641 8.4426 4.99738 8.50472 4.99738C8.56684 4.99738 8.62737 5.01641 8.67827 5.05189C8.72931 5.08748 8.76805 5.13771 8.78944 5.19578L10.2633 9.19617L10.4106 9.59617L10.8106 9.74355L14.811 11.2173L14.8164 11.2193C14.8734 11.2399 14.9224 11.2776 14.9568 11.3271C14.9914 11.3767 15.0099 11.4358 15.0094 11.4962Z" stroke="#79747E" stroke-width="1.84729"/>
<path d="M14.0152 2.60736L14.0152 6.02499" stroke="#79747E" stroke-width="1.52601" stroke-linecap="round"/>
<path d="M17.4695 6.93134L17.4695 9.6494" stroke="#79747E" stroke-width="1.43813" stroke-linecap="round"/>
<path d="M15.7256 4.31616H12.3048" stroke="#79747E" stroke-width="1.52601" stroke-linecap="round"/>
<path d="M18.8297 8.20282H16.1093" stroke="#79747E" stroke-width="1.43813" stroke-linecap="round"/>
</svg>
